<svg width="487" height="434" viewBox="0 0 487 434" fill="none" xmlns="http://www.w3.org/2000/svg">
<path d="M299.6 0C513.3 145.4 444 305.2 444 305.2C444 305.2 504.7 373.7 480.3 433.7C480.3 433.7 455.1 391.8 413.3 391.8C372.9 391.8 349 433.7 267.4 433.7C86 433.7 0 282.1 0 282.1C163.5 389.9 275.2 313.5 275.2 313.5C201.4 270.8 44.8 66.4 44.8 66.4C181.3 182.6 240.2 213.1 240.2 213.1C204.8 184.1 106.1 42 106.1 42C185.1 121.9 342.1 233.3 342.1 233.3C387.1 110.2 299.6 0 299.6 0Z" fill="white"/>
</svg>
